<mxfile modified="2023-06-16T17:33:03.797Z" host="app.diagrams.net" agent="Mozilla/5.0 (Macintosh; Intel Mac OS X 10_15_7) AppleWebKit/537.36 (KHTML, like Gecko) Chrome/114.0.0.0 Safari/537.36" etag="Nz06hdgOO39juokaCt1N" version="21.1.5" type="device">
  <diagram id="Ht1M8jgEwFfnCIfOTk4-" name="Page-1">
    <mxGraphModel dx="2210" dy="1508" grid="1" gridSize="10" guides="1" tooltips="1" connect="1" arrows="1" fold="1" page="1" pageScale="1" pageWidth="1169" pageHeight="827" math="0" shadow="0">
      <root>
        <mxCell id="0" />
        <mxCell id="1" parent="0" />
        <mxCell id="X1kZhqMp7LS2dHs1aFbI-1" value="Region" style="points=[[0,0],[0.25,0],[0.5,0],[0.75,0],[1,0],[1,0.25],[1,0.5],[1,0.75],[1,1],[0.75,1],[0.5,1],[0.25,1],[0,1],[0,0.75],[0,0.5],[0,0.25]];outlineConnect=0;gradientColor=none;html=1;whiteSpace=wrap;fontSize=12;fontStyle=0;container=1;pointerEvents=0;collapsible=0;recursiveResize=0;shape=mxgraph.aws4.group;grIcon=mxgraph.aws4.group_region;strokeColor=#147EBA;fillColor=none;verticalAlign=top;align=left;spacingLeft=30;fontColor=#147EBA;dashed=1;" parent="1" vertex="1">
          <mxGeometry x="-200" y="-160" width="1980" height="1080" as="geometry" />
        </mxCell>
        <mxCell id="X1kZhqMp7LS2dHs1aFbI-19" value="" style="sketch=0;points=[[0,0,0],[0.25,0,0],[0.5,0,0],[0.75,0,0],[1,0,0],[0,1,0],[0.25,1,0],[0.5,1,0],[0.75,1,0],[1,1,0],[0,0.25,0],[0,0.5,0],[0,0.75,0],[1,0.25,0],[1,0.5,0],[1,0.75,0]];outlineConnect=0;fontColor=#232F3E;gradientColor=#4D72F3;gradientDirection=north;fillColor=#3334B9;strokeColor=#ffffff;dashed=0;verticalLabelPosition=bottom;verticalAlign=top;align=center;html=1;fontSize=12;fontStyle=0;aspect=fixed;shape=mxgraph.aws4.resourceIcon;resIcon=mxgraph.aws4.codepipeline;" parent="X1kZhqMp7LS2dHs1aFbI-1" vertex="1">
          <mxGeometry x="1640" y="440" width="78" height="78" as="geometry" />
        </mxCell>
        <mxCell id="X1kZhqMp7LS2dHs1aFbI-62" style="edgeStyle=orthogonalEdgeStyle;rounded=0;orthogonalLoop=1;jettySize=auto;html=1;strokeWidth=2.5;fontFamily=Verdana;fontSize=15;endArrow=open;endFill=0;startSize=8;endSize=13;sourcePerimeterSpacing=8;targetPerimeterSpacing=8;" parent="X1kZhqMp7LS2dHs1aFbI-1" source="X1kZhqMp7LS2dHs1aFbI-20" target="X1kZhqMp7LS2dHs1aFbI-57" edge="1">
          <mxGeometry relative="1" as="geometry">
            <Array as="points">
              <mxPoint x="1040" y="640" />
              <mxPoint x="1040" y="640" />
            </Array>
          </mxGeometry>
        </mxCell>
        <mxCell id="X1kZhqMp7LS2dHs1aFbI-68" style="edgeStyle=orthogonalEdgeStyle;rounded=0;orthogonalLoop=1;jettySize=auto;html=1;strokeWidth=2.5;fontFamily=Verdana;fontSize=15;endArrow=open;endFill=0;startSize=8;endSize=13;sourcePerimeterSpacing=8;targetPerimeterSpacing=8;" parent="X1kZhqMp7LS2dHs1aFbI-1" source="X1kZhqMp7LS2dHs1aFbI-20" target="X1kZhqMp7LS2dHs1aFbI-21" edge="1">
          <mxGeometry relative="1" as="geometry" />
        </mxCell>
        <mxCell id="X1kZhqMp7LS2dHs1aFbI-20" value="" style="sketch=0;points=[[0,0,0],[0.25,0,0],[0.5,0,0],[0.75,0,0],[1,0,0],[0,1,0],[0.25,1,0],[0.5,1,0],[0.75,1,0],[1,1,0],[0,0.25,0],[0,0.5,0],[0,0.75,0],[1,0.25,0],[1,0.5,0],[1,0.75,0]];outlineConnect=0;fontColor=#232F3E;gradientColor=#4D72F3;gradientDirection=north;fillColor=#3334B9;strokeColor=#ffffff;dashed=0;verticalLabelPosition=bottom;verticalAlign=top;align=center;html=1;fontSize=12;fontStyle=0;aspect=fixed;shape=mxgraph.aws4.resourceIcon;resIcon=mxgraph.aws4.codebuild;" parent="X1kZhqMp7LS2dHs1aFbI-1" vertex="1">
          <mxGeometry x="1480" y="601" width="78" height="78" as="geometry" />
        </mxCell>
        <mxCell id="X1kZhqMp7LS2dHs1aFbI-21" value="" style="sketch=0;points=[[0,0,0],[0.25,0,0],[0.5,0,0],[0.75,0,0],[1,0,0],[0,1,0],[0.25,1,0],[0.5,1,0],[0.75,1,0],[1,1,0],[0,0.25,0],[0,0.5,0],[0,0.75,0],[1,0.25,0],[1,0.5,0],[1,0.75,0]];outlineConnect=0;fontColor=#232F3E;gradientColor=#F78E04;gradientDirection=north;fillColor=#D05C17;strokeColor=#ffffff;dashed=0;verticalLabelPosition=bottom;verticalAlign=top;align=center;html=1;fontSize=12;fontStyle=0;aspect=fixed;shape=mxgraph.aws4.resourceIcon;resIcon=mxgraph.aws4.ecr;" parent="X1kZhqMp7LS2dHs1aFbI-1" vertex="1">
          <mxGeometry x="1480" y="800" width="78" height="78" as="geometry" />
        </mxCell>
        <mxCell id="X1kZhqMp7LS2dHs1aFbI-22" value="" style="dashed=0;outlineConnect=0;html=1;align=center;labelPosition=center;verticalLabelPosition=bottom;verticalAlign=top;shape=mxgraph.weblogos.github" parent="X1kZhqMp7LS2dHs1aFbI-1" vertex="1">
          <mxGeometry x="1643" y="604" width="75" height="75" as="geometry" />
        </mxCell>
        <mxCell id="X1kZhqMp7LS2dHs1aFbI-66" style="edgeStyle=orthogonalEdgeStyle;rounded=0;orthogonalLoop=1;jettySize=auto;html=1;strokeWidth=2.5;fontFamily=Verdana;fontSize=15;endArrow=open;endFill=0;startSize=8;endSize=13;sourcePerimeterSpacing=8;targetPerimeterSpacing=8;" parent="X1kZhqMp7LS2dHs1aFbI-1" source="X1kZhqMp7LS2dHs1aFbI-23" target="X1kZhqMp7LS2dHs1aFbI-22" edge="1">
          <mxGeometry relative="1" as="geometry" />
        </mxCell>
        <mxCell id="X1kZhqMp7LS2dHs1aFbI-23" value="" style="sketch=0;outlineConnect=0;fontColor=#232F3E;gradientColor=none;fillColor=#232F3D;strokeColor=none;dashed=0;verticalLabelPosition=bottom;verticalAlign=top;align=center;html=1;fontSize=12;fontStyle=0;aspect=fixed;pointerEvents=1;shape=mxgraph.aws4.user;" parent="X1kZhqMp7LS2dHs1aFbI-1" vertex="1">
          <mxGeometry x="1641.5" y="800" width="78" height="78" as="geometry" />
        </mxCell>
        <mxCell id="X1kZhqMp7LS2dHs1aFbI-36" value="VPC" style="points=[[0,0],[0.25,0],[0.5,0],[0.75,0],[1,0],[1,0.25],[1,0.5],[1,0.75],[1,1],[0.75,1],[0.5,1],[0.25,1],[0,1],[0,0.75],[0,0.5],[0,0.25]];outlineConnect=0;gradientColor=none;html=1;whiteSpace=wrap;fontSize=12;fontStyle=0;container=1;pointerEvents=0;collapsible=0;recursiveResize=0;shape=mxgraph.aws4.group;grIcon=mxgraph.aws4.group_vpc;strokeColor=#248814;fillColor=none;verticalAlign=top;align=left;spacingLeft=30;fontColor=#AAB7B8;dashed=0;" parent="X1kZhqMp7LS2dHs1aFbI-1" vertex="1">
          <mxGeometry x="270" y="40" width="480" height="160" as="geometry" />
        </mxCell>
        <mxCell id="X1kZhqMp7LS2dHs1aFbI-24" value="" style="sketch=0;points=[[0,0,0],[0.25,0,0],[0.5,0,0],[0.75,0,0],[1,0,0],[0,1,0],[0.25,1,0],[0.5,1,0],[0.75,1,0],[1,1,0],[0,0.25,0],[0,0.5,0],[0,0.75,0],[1,0.25,0],[1,0.5,0],[1,0.75,0]];outlineConnect=0;fontColor=#232F3E;gradientColor=#60A337;gradientDirection=north;fillColor=#277116;strokeColor=#ffffff;dashed=0;verticalLabelPosition=bottom;verticalAlign=top;align=center;html=1;fontSize=12;fontStyle=0;aspect=fixed;shape=mxgraph.aws4.resourceIcon;resIcon=mxgraph.aws4.s3;" parent="X1kZhqMp7LS2dHs1aFbI-36" vertex="1">
          <mxGeometry x="320" y="40" width="79" height="79" as="geometry" />
        </mxCell>
        <mxCell id="X1kZhqMp7LS2dHs1aFbI-25" value="" style="sketch=0;points=[[0,0,0],[0.25,0,0],[0.5,0,0],[0.75,0,0],[1,0,0],[0,1,0],[0.25,1,0],[0.5,1,0],[0.75,1,0],[1,1,0],[0,0.25,0],[0,0.5,0],[0,0.75,0],[1,0.25,0],[1,0.5,0],[1,0.75,0]];outlineConnect=0;fontColor=#232F3E;gradientColor=#945DF2;gradientDirection=north;fillColor=#5A30B5;strokeColor=#ffffff;dashed=0;verticalLabelPosition=bottom;verticalAlign=top;align=center;html=1;fontSize=12;fontStyle=0;aspect=fixed;shape=mxgraph.aws4.resourceIcon;resIcon=mxgraph.aws4.cloudfront;opacity=40;" parent="X1kZhqMp7LS2dHs1aFbI-36" vertex="1">
          <mxGeometry x="80" y="40" width="78" height="78" as="geometry" />
        </mxCell>
        <mxCell id="X1kZhqMp7LS2dHs1aFbI-107" value="CloudFront" style="text;html=1;strokeColor=none;fillColor=none;align=center;verticalAlign=middle;whiteSpace=wrap;rounded=0;strokeWidth=1;fontFamily=Verdana;fontStyle=0;fontSize=15;opacity=50;fontColor=#828282;" parent="X1kZhqMp7LS2dHs1aFbI-36" vertex="1">
          <mxGeometry x="89" y="120" width="60" height="30" as="geometry" />
        </mxCell>
        <mxCell id="X1kZhqMp7LS2dHs1aFbI-110" value="S3 webside" style="text;html=1;strokeColor=none;fillColor=none;align=center;verticalAlign=middle;whiteSpace=wrap;rounded=0;strokeWidth=1;fontFamily=Verdana;fontStyle=0;fontSize=15;" parent="X1kZhqMp7LS2dHs1aFbI-36" vertex="1">
          <mxGeometry x="314.25" y="10" width="90.5" height="30" as="geometry" />
        </mxCell>
        <mxCell id="X1kZhqMp7LS2dHs1aFbI-2" value="VPC" style="points=[[0,0],[0.25,0],[0.5,0],[0.75,0],[1,0],[1,0.25],[1,0.5],[1,0.75],[1,1],[0.75,1],[0.5,1],[0.25,1],[0,1],[0,0.75],[0,0.5],[0,0.25]];outlineConnect=0;gradientColor=none;html=1;whiteSpace=wrap;fontSize=12;fontStyle=0;container=1;pointerEvents=0;collapsible=0;recursiveResize=0;shape=mxgraph.aws4.group;grIcon=mxgraph.aws4.group_vpc;strokeColor=#248814;fillColor=none;verticalAlign=top;align=left;spacingLeft=30;fontColor=#AAB7B8;dashed=0;" parent="X1kZhqMp7LS2dHs1aFbI-1" vertex="1">
          <mxGeometry x="270" y="240" width="1085" height="800" as="geometry" />
        </mxCell>
        <mxCell id="X1kZhqMp7LS2dHs1aFbI-40" style="edgeStyle=orthogonalEdgeStyle;rounded=0;orthogonalLoop=1;jettySize=auto;html=1;strokeWidth=2.5;endArrow=open;endFill=0;startSize=8;endSize=13;sourcePerimeterSpacing=8;targetPerimeterSpacing=8;" parent="X1kZhqMp7LS2dHs1aFbI-2" source="X1kZhqMp7LS2dHs1aFbI-6" target="X1kZhqMp7LS2dHs1aFbI-7" edge="1">
          <mxGeometry relative="1" as="geometry" />
        </mxCell>
        <mxCell id="X1kZhqMp7LS2dHs1aFbI-6" value="" style="sketch=0;outlineConnect=0;fontColor=#232F3E;gradientColor=none;fillColor=#4D27AA;strokeColor=none;dashed=0;verticalLabelPosition=bottom;verticalAlign=top;align=center;html=1;fontSize=12;fontStyle=0;aspect=fixed;pointerEvents=1;shape=mxgraph.aws4.internet_gateway;" parent="X1kZhqMp7LS2dHs1aFbI-2" vertex="1">
          <mxGeometry x="-40" y="361" width="80" height="80" as="geometry" />
        </mxCell>
        <mxCell id="X1kZhqMp7LS2dHs1aFbI-59" style="edgeStyle=orthogonalEdgeStyle;rounded=0;orthogonalLoop=1;jettySize=auto;html=1;strokeWidth=2.5;fontFamily=Verdana;fontSize=15;endArrow=open;endFill=0;startSize=8;endSize=13;sourcePerimeterSpacing=8;targetPerimeterSpacing=8;" parent="X1kZhqMp7LS2dHs1aFbI-2" source="X1kZhqMp7LS2dHs1aFbI-7" target="X1kZhqMp7LS2dHs1aFbI-57" edge="1">
          <mxGeometry relative="1" as="geometry">
            <Array as="points">
              <mxPoint x="290" y="400" />
              <mxPoint x="290" y="400" />
            </Array>
          </mxGeometry>
        </mxCell>
        <mxCell id="X1kZhqMp7LS2dHs1aFbI-7" value="" style="sketch=0;outlineConnect=0;fontColor=#232F3E;gradientColor=none;fillColor=#4D27AA;strokeColor=none;dashed=0;verticalLabelPosition=bottom;verticalAlign=top;align=center;html=1;fontSize=12;fontStyle=0;aspect=fixed;pointerEvents=1;shape=mxgraph.aws4.application_load_balancer;" parent="X1kZhqMp7LS2dHs1aFbI-2" vertex="1">
          <mxGeometry x="130" y="361" width="78" height="78" as="geometry" />
        </mxCell>
        <mxCell id="X1kZhqMp7LS2dHs1aFbI-3" value="AZ #1" style="fillColor=none;strokeColor=#147EBA;dashed=1;verticalAlign=top;fontStyle=0;fontColor=#147EBA;" parent="X1kZhqMp7LS2dHs1aFbI-2" vertex="1">
          <mxGeometry x="170" y="40" width="850" height="280" as="geometry" />
        </mxCell>
        <mxCell id="X1kZhqMp7LS2dHs1aFbI-8" value="Public subnet" style="points=[[0,0],[0.25,0],[0.5,0],[0.75,0],[1,0],[1,0.25],[1,0.5],[1,0.75],[1,1],[0.75,1],[0.5,1],[0.25,1],[0,1],[0,0.75],[0,0.5],[0,0.25]];outlineConnect=0;gradientColor=none;html=1;whiteSpace=wrap;fontSize=12;fontStyle=0;container=1;pointerEvents=0;collapsible=0;recursiveResize=0;shape=mxgraph.aws4.group;grIcon=mxgraph.aws4.group_security_group;grStroke=0;strokeColor=#248814;fillColor=#E9F3E6;verticalAlign=top;align=left;spacingLeft=30;fontColor=#248814;dashed=0;" parent="X1kZhqMp7LS2dHs1aFbI-2" vertex="1">
          <mxGeometry x="208" y="80" width="322" height="200" as="geometry" />
        </mxCell>
        <mxCell id="X1kZhqMp7LS2dHs1aFbI-10" value="" style="sketch=0;outlineConnect=0;fontColor=#232F3E;gradientColor=none;fillColor=#D45B07;strokeColor=none;dashed=0;verticalLabelPosition=bottom;verticalAlign=top;align=center;html=1;fontSize=12;fontStyle=0;aspect=fixed;pointerEvents=1;shape=mxgraph.aws4.ecs_task;" parent="X1kZhqMp7LS2dHs1aFbI-8" vertex="1">
          <mxGeometry x="174.65" y="46" width="44.71" height="58" as="geometry" />
        </mxCell>
        <mxCell id="X1kZhqMp7LS2dHs1aFbI-44" value="Task" style="text;html=1;strokeColor=none;fillColor=none;align=center;verticalAlign=middle;whiteSpace=wrap;rounded=0;strokeWidth=1;fontFamily=Verdana;fontStyle=0;fontSize=15;" parent="X1kZhqMp7LS2dHs1aFbI-8" vertex="1">
          <mxGeometry x="167" y="110" width="60" height="30" as="geometry" />
        </mxCell>
        <mxCell id="X1kZhqMp7LS2dHs1aFbI-42" value="ALB" style="text;html=1;strokeColor=none;fillColor=none;align=center;verticalAlign=middle;whiteSpace=wrap;rounded=0;strokeWidth=1;fontFamily=Verdana;fontStyle=0;fontSize=15;" parent="X1kZhqMp7LS2dHs1aFbI-2" vertex="1">
          <mxGeometry x="100" y="334" width="60" height="30" as="geometry" />
        </mxCell>
        <mxCell id="X1kZhqMp7LS2dHs1aFbI-9" value="" style="sketch=0;points=[[0,0,0],[0.25,0,0],[0.5,0,0],[0.75,0,0],[1,0,0],[0,1,0],[0.25,1,0],[0.5,1,0],[0.75,1,0],[1,1,0],[0,0.25,0],[0,0.5,0],[0,0.75,0],[1,0.25,0],[1,0.5,0],[1,0.75,0]];outlineConnect=0;fontColor=#232F3E;gradientColor=#F78E04;gradientDirection=north;fillColor=#D05C17;strokeColor=#ffffff;dashed=0;verticalLabelPosition=bottom;verticalAlign=top;align=center;html=1;fontSize=12;fontStyle=0;aspect=fixed;shape=mxgraph.aws4.resourceIcon;resIcon=mxgraph.aws4.ecs;" parent="X1kZhqMp7LS2dHs1aFbI-2" vertex="1">
          <mxGeometry x="250" y="120" width="70" height="70" as="geometry" />
        </mxCell>
        <mxCell id="X1kZhqMp7LS2dHs1aFbI-43" value="ECS&lt;br&gt;Cluster" style="text;html=1;strokeColor=none;fillColor=none;align=center;verticalAlign=middle;whiteSpace=wrap;rounded=0;strokeWidth=1;fontFamily=Verdana;fontStyle=0;fontSize=15;" parent="X1kZhqMp7LS2dHs1aFbI-2" vertex="1">
          <mxGeometry x="255" y="200" width="60" height="30" as="geometry" />
        </mxCell>
        <mxCell id="X1kZhqMp7LS2dHs1aFbI-11" value="Private subnet" style="points=[[0,0],[0.25,0],[0.5,0],[0.75,0],[1,0],[1,0.25],[1,0.5],[1,0.75],[1,1],[0.75,1],[0.5,1],[0.25,1],[0,1],[0,0.75],[0,0.5],[0,0.25]];outlineConnect=0;gradientColor=none;html=1;whiteSpace=wrap;fontSize=12;fontStyle=0;container=1;pointerEvents=0;collapsible=0;recursiveResize=0;shape=mxgraph.aws4.group;grIcon=mxgraph.aws4.group_security_group;grStroke=0;strokeColor=#147EBA;fillColor=#E6F2F8;verticalAlign=top;align=left;spacingLeft=30;fontColor=#147EBA;dashed=0;" parent="X1kZhqMp7LS2dHs1aFbI-2" vertex="1">
          <mxGeometry x="650" y="80" width="320" height="200" as="geometry" />
        </mxCell>
        <mxCell id="X1kZhqMp7LS2dHs1aFbI-45" value="RDS" style="text;html=1;strokeColor=none;fillColor=none;align=center;verticalAlign=middle;whiteSpace=wrap;rounded=0;strokeWidth=1;fontFamily=Verdana;fontStyle=0;fontSize=15;" parent="X1kZhqMp7LS2dHs1aFbI-11" vertex="1">
          <mxGeometry x="140" y="20" width="60" height="30" as="geometry" />
        </mxCell>
        <mxCell id="X1kZhqMp7LS2dHs1aFbI-46" value="Postgresql" style="text;html=1;strokeColor=none;fillColor=none;align=center;verticalAlign=middle;whiteSpace=wrap;rounded=0;strokeWidth=1;fontFamily=Verdana;fontStyle=0;fontSize=15;" parent="X1kZhqMp7LS2dHs1aFbI-11" vertex="1">
          <mxGeometry x="140" y="139" width="60" height="30" as="geometry" />
        </mxCell>
        <mxCell id="X1kZhqMp7LS2dHs1aFbI-12" value="" style="sketch=0;points=[[0,0,0],[0.25,0,0],[0.5,0,0],[0.75,0,0],[1,0,0],[0,1,0],[0.25,1,0],[0.5,1,0],[0.75,1,0],[1,1,0],[0,0.25,0],[0,0.5,0],[0,0.75,0],[1,0.25,0],[1,0.5,0],[1,0.75,0]];outlineConnect=0;fontColor=#232F3E;gradientColor=#4D72F3;gradientDirection=north;fillColor=#3334B9;strokeColor=#ffffff;dashed=0;verticalLabelPosition=bottom;verticalAlign=top;align=center;html=1;fontSize=12;fontStyle=0;aspect=fixed;shape=mxgraph.aws4.resourceIcon;resIcon=mxgraph.aws4.rds;" parent="X1kZhqMp7LS2dHs1aFbI-2" vertex="1">
          <mxGeometry x="780" y="141" width="78" height="78" as="geometry" />
        </mxCell>
        <mxCell id="X1kZhqMp7LS2dHs1aFbI-47" value="AZ #2" style="fillColor=none;strokeColor=#147EBA;dashed=1;verticalAlign=top;fontStyle=0;fontColor=#147EBA;" parent="X1kZhqMp7LS2dHs1aFbI-2" vertex="1">
          <mxGeometry x="170" y="480" width="850" height="280" as="geometry" />
        </mxCell>
        <mxCell id="X1kZhqMp7LS2dHs1aFbI-48" value="Public subnet" style="points=[[0,0],[0.25,0],[0.5,0],[0.75,0],[1,0],[1,0.25],[1,0.5],[1,0.75],[1,1],[0.75,1],[0.5,1],[0.25,1],[0,1],[0,0.75],[0,0.5],[0,0.25]];outlineConnect=0;gradientColor=none;html=1;whiteSpace=wrap;fontSize=12;fontStyle=0;container=1;pointerEvents=0;collapsible=0;recursiveResize=0;shape=mxgraph.aws4.group;grIcon=mxgraph.aws4.group_security_group;grStroke=0;strokeColor=#248814;fillColor=#E9F3E6;verticalAlign=top;align=left;spacingLeft=30;fontColor=#248814;dashed=0;" parent="X1kZhqMp7LS2dHs1aFbI-2" vertex="1">
          <mxGeometry x="208" y="520" width="322" height="200" as="geometry" />
        </mxCell>
        <mxCell id="X1kZhqMp7LS2dHs1aFbI-49" value="" style="sketch=0;outlineConnect=0;fontColor=#232F3E;gradientColor=none;fillColor=#D45B07;strokeColor=none;dashed=0;verticalLabelPosition=bottom;verticalAlign=top;align=center;html=1;fontSize=12;fontStyle=0;aspect=fixed;pointerEvents=1;shape=mxgraph.aws4.ecs_task;" parent="X1kZhqMp7LS2dHs1aFbI-48" vertex="1">
          <mxGeometry x="174.64999999999998" y="46" width="44.71" height="58" as="geometry" />
        </mxCell>
        <mxCell id="X1kZhqMp7LS2dHs1aFbI-52" value="Task" style="text;html=1;strokeColor=none;fillColor=none;align=center;verticalAlign=middle;whiteSpace=wrap;rounded=0;strokeWidth=1;fontFamily=Verdana;fontStyle=0;fontSize=15;" parent="X1kZhqMp7LS2dHs1aFbI-48" vertex="1">
          <mxGeometry x="167" y="104" width="60" height="30" as="geometry" />
        </mxCell>
        <mxCell id="X1kZhqMp7LS2dHs1aFbI-50" value="" style="sketch=0;points=[[0,0,0],[0.25,0,0],[0.5,0,0],[0.75,0,0],[1,0,0],[0,1,0],[0.25,1,0],[0.5,1,0],[0.75,1,0],[1,1,0],[0,0.25,0],[0,0.5,0],[0,0.75,0],[1,0.25,0],[1,0.5,0],[1,0.75,0]];outlineConnect=0;fontColor=#232F3E;gradientColor=#F78E04;gradientDirection=north;fillColor=#D05C17;strokeColor=#ffffff;dashed=0;verticalLabelPosition=bottom;verticalAlign=top;align=center;html=1;fontSize=12;fontStyle=0;aspect=fixed;shape=mxgraph.aws4.resourceIcon;resIcon=mxgraph.aws4.ecs;" parent="X1kZhqMp7LS2dHs1aFbI-2" vertex="1">
          <mxGeometry x="250" y="560" width="70" height="70" as="geometry" />
        </mxCell>
        <mxCell id="X1kZhqMp7LS2dHs1aFbI-51" value="ECS&lt;br&gt;Cluster" style="text;html=1;strokeColor=none;fillColor=none;align=center;verticalAlign=middle;whiteSpace=wrap;rounded=0;strokeWidth=1;fontFamily=Verdana;fontStyle=0;fontSize=15;" parent="X1kZhqMp7LS2dHs1aFbI-2" vertex="1">
          <mxGeometry x="255" y="640" width="60" height="30" as="geometry" />
        </mxCell>
        <mxCell id="X1kZhqMp7LS2dHs1aFbI-53" value="Private subnet" style="points=[[0,0],[0.25,0],[0.5,0],[0.75,0],[1,0],[1,0.25],[1,0.5],[1,0.75],[1,1],[0.75,1],[0.5,1],[0.25,1],[0,1],[0,0.75],[0,0.5],[0,0.25]];outlineConnect=0;gradientColor=none;html=1;whiteSpace=wrap;fontSize=12;fontStyle=0;container=1;pointerEvents=0;collapsible=0;recursiveResize=0;shape=mxgraph.aws4.group;grIcon=mxgraph.aws4.group_security_group;grStroke=0;strokeColor=#147EBA;fillColor=#E6F2F8;verticalAlign=top;align=left;spacingLeft=30;fontColor=#147EBA;dashed=0;" parent="X1kZhqMp7LS2dHs1aFbI-2" vertex="1">
          <mxGeometry x="650" y="520" width="320" height="200" as="geometry" />
        </mxCell>
        <mxCell id="X1kZhqMp7LS2dHs1aFbI-54" value="RDS" style="text;html=1;strokeColor=none;fillColor=none;align=center;verticalAlign=middle;whiteSpace=wrap;rounded=0;strokeWidth=1;fontFamily=Verdana;fontStyle=0;fontSize=15;" parent="X1kZhqMp7LS2dHs1aFbI-53" vertex="1">
          <mxGeometry x="140" y="20" width="60" height="30" as="geometry" />
        </mxCell>
        <mxCell id="X1kZhqMp7LS2dHs1aFbI-55" value="Postgresql" style="text;html=1;strokeColor=none;fillColor=none;align=center;verticalAlign=middle;whiteSpace=wrap;rounded=0;strokeWidth=1;fontFamily=Verdana;fontStyle=0;fontSize=15;" parent="X1kZhqMp7LS2dHs1aFbI-53" vertex="1">
          <mxGeometry x="140" y="139" width="60" height="30" as="geometry" />
        </mxCell>
        <mxCell id="X1kZhqMp7LS2dHs1aFbI-56" value="" style="sketch=0;points=[[0,0,0],[0.25,0,0],[0.5,0,0],[0.75,0,0],[1,0,0],[0,1,0],[0.25,1,0],[0.5,1,0],[0.75,1,0],[1,1,0],[0,0.25,0],[0,0.5,0],[0,0.75,0],[1,0.25,0],[1,0.5,0],[1,0.75,0]];outlineConnect=0;fontColor=#232F3E;gradientColor=#4D72F3;gradientDirection=north;fillColor=#3334B9;strokeColor=#ffffff;dashed=0;verticalLabelPosition=bottom;verticalAlign=top;align=center;html=1;fontSize=12;fontStyle=0;aspect=fixed;shape=mxgraph.aws4.resourceIcon;resIcon=mxgraph.aws4.rds;" parent="X1kZhqMp7LS2dHs1aFbI-2" vertex="1">
          <mxGeometry x="780" y="581" width="78" height="78" as="geometry" />
        </mxCell>
        <mxCell id="X1kZhqMp7LS2dHs1aFbI-57" value="" style="fillColor=none;strokeColor=#5A6C86;dashed=1;verticalAlign=top;fontStyle=0;fontColor=#5A6C86;strokeWidth=2;fontFamily=Verdana;fontSize=15;" parent="X1kZhqMp7LS2dHs1aFbI-2" vertex="1">
          <mxGeometry x="340" y="100" width="130" height="580" as="geometry" />
        </mxCell>
        <mxCell id="X1kZhqMp7LS2dHs1aFbI-39" style="edgeStyle=orthogonalEdgeStyle;rounded=0;orthogonalLoop=1;jettySize=auto;html=1;endArrow=open;endFill=0;strokeWidth=2.5;endSize=13;startSize=8;sourcePerimeterSpacing=8;targetPerimeterSpacing=8;" parent="X1kZhqMp7LS2dHs1aFbI-1" source="X1kZhqMp7LS2dHs1aFbI-38" target="X1kZhqMp7LS2dHs1aFbI-6" edge="1">
          <mxGeometry relative="1" as="geometry" />
        </mxCell>
        <mxCell id="X1kZhqMp7LS2dHs1aFbI-77" style="edgeStyle=orthogonalEdgeStyle;rounded=0;orthogonalLoop=1;jettySize=auto;html=1;strokeWidth=2.5;fontFamily=Verdana;fontSize=15;endArrow=open;endFill=0;startSize=8;endSize=13;sourcePerimeterSpacing=8;targetPerimeterSpacing=8;entryX=0;entryY=0.5;entryDx=0;entryDy=0;entryPerimeter=0;" parent="X1kZhqMp7LS2dHs1aFbI-1" source="X1kZhqMp7LS2dHs1aFbI-38" target="X1kZhqMp7LS2dHs1aFbI-24" edge="1">
          <mxGeometry relative="1" as="geometry">
            <Array as="points">
              <mxPoint x="80" y="120" />
            </Array>
          </mxGeometry>
        </mxCell>
        <mxCell id="X1kZhqMp7LS2dHs1aFbI-38" value="" style="sketch=0;outlineConnect=0;fontColor=#232F3E;gradientColor=none;fillColor=#232F3D;strokeColor=none;dashed=0;verticalLabelPosition=bottom;verticalAlign=top;align=center;html=1;fontSize=12;fontStyle=0;aspect=fixed;pointerEvents=1;shape=mxgraph.aws4.users;" parent="X1kZhqMp7LS2dHs1aFbI-1" vertex="1">
          <mxGeometry x="40" y="601" width="78" height="78" as="geometry" />
        </mxCell>
        <mxCell id="X1kZhqMp7LS2dHs1aFbI-41" value="IGW" style="text;html=1;strokeColor=none;fillColor=none;align=center;verticalAlign=middle;whiteSpace=wrap;rounded=0;strokeWidth=1;fontFamily=Verdana;fontStyle=0;fontSize=15;" parent="X1kZhqMp7LS2dHs1aFbI-1" vertex="1">
          <mxGeometry x="210" y="570" width="60" height="30" as="geometry" />
        </mxCell>
        <mxCell id="X1kZhqMp7LS2dHs1aFbI-65" style="edgeStyle=orthogonalEdgeStyle;rounded=0;orthogonalLoop=1;jettySize=auto;html=1;strokeWidth=2.5;fontFamily=Verdana;fontSize=15;endArrow=open;endFill=0;startSize=8;endSize=13;sourcePerimeterSpacing=8;targetPerimeterSpacing=8;" parent="X1kZhqMp7LS2dHs1aFbI-1" source="X1kZhqMp7LS2dHs1aFbI-63" target="X1kZhqMp7LS2dHs1aFbI-24" edge="1">
          <mxGeometry relative="1" as="geometry">
            <Array as="points">
              <mxPoint x="1940" y="636" />
              <mxPoint x="1940" y="120" />
            </Array>
          </mxGeometry>
        </mxCell>
        <mxCell id="X1kZhqMp7LS2dHs1aFbI-63" value="" style="sketch=0;points=[[0,0,0],[0.25,0,0],[0.5,0,0],[0.75,0,0],[1,0,0],[0,1,0],[0.25,1,0],[0.5,1,0],[0.75,1,0],[1,1,0],[0,0.25,0],[0,0.5,0],[0,0.75,0],[1,0.25,0],[1,0.5,0],[1,0.75,0]];outlineConnect=0;fontColor=#232F3E;gradientColor=#4D72F3;gradientDirection=north;fillColor=#3334B9;strokeColor=#ffffff;dashed=0;verticalLabelPosition=bottom;verticalAlign=top;align=center;html=1;fontSize=12;fontStyle=0;aspect=fixed;shape=mxgraph.aws4.resourceIcon;resIcon=mxgraph.aws4.codedeploy;strokeWidth=2;fontFamily=Verdana;" parent="X1kZhqMp7LS2dHs1aFbI-1" vertex="1">
          <mxGeometry x="1800" y="597" width="78" height="78" as="geometry" />
        </mxCell>
        <mxCell id="X1kZhqMp7LS2dHs1aFbI-70" value="" style="shape=curlyBracket;whiteSpace=wrap;html=1;rounded=1;labelPosition=left;verticalLabelPosition=middle;align=right;verticalAlign=middle;strokeWidth=2;fontFamily=Verdana;fontSize=15;rotation=90;" parent="X1kZhqMp7LS2dHs1aFbI-1" vertex="1">
          <mxGeometry x="1665" y="398" width="20" height="318" as="geometry" />
        </mxCell>
        <mxCell id="X1kZhqMp7LS2dHs1aFbI-72" value="CodePipeline" style="text;html=1;strokeColor=none;fillColor=none;align=center;verticalAlign=middle;whiteSpace=wrap;rounded=0;strokeWidth=1;fontFamily=Verdana;fontStyle=0;fontSize=15;" parent="X1kZhqMp7LS2dHs1aFbI-1" vertex="1">
          <mxGeometry x="1649" y="398" width="60" height="30" as="geometry" />
        </mxCell>
        <mxCell id="X1kZhqMp7LS2dHs1aFbI-73" value="CodeBuild" style="text;html=1;strokeColor=none;fillColor=none;align=center;verticalAlign=middle;whiteSpace=wrap;rounded=0;strokeWidth=1;fontFamily=Verdana;fontStyle=0;fontSize=15;" parent="X1kZhqMp7LS2dHs1aFbI-1" vertex="1">
          <mxGeometry x="1489" y="571" width="60" height="30" as="geometry" />
        </mxCell>
        <mxCell id="X1kZhqMp7LS2dHs1aFbI-74" value="CodeDeploy" style="text;html=1;strokeColor=none;fillColor=none;align=center;verticalAlign=middle;whiteSpace=wrap;rounded=0;strokeWidth=1;fontFamily=Verdana;fontStyle=0;fontSize=15;" parent="X1kZhqMp7LS2dHs1aFbI-1" vertex="1">
          <mxGeometry x="1809" y="571" width="60" height="30" as="geometry" />
        </mxCell>
        <mxCell id="X1kZhqMp7LS2dHs1aFbI-75" value="ECR" style="text;html=1;strokeColor=none;fillColor=none;align=center;verticalAlign=middle;whiteSpace=wrap;rounded=0;strokeWidth=1;fontFamily=Verdana;fontStyle=0;fontSize=15;" parent="X1kZhqMp7LS2dHs1aFbI-1" vertex="1">
          <mxGeometry x="1489" y="878" width="60" height="30" as="geometry" />
        </mxCell>
        <mxCell id="X1kZhqMp7LS2dHs1aFbI-76" value="Develop" style="text;html=1;strokeColor=none;fillColor=none;align=center;verticalAlign=middle;whiteSpace=wrap;rounded=0;strokeWidth=1;fontFamily=Verdana;fontStyle=0;fontSize=15;" parent="X1kZhqMp7LS2dHs1aFbI-1" vertex="1">
          <mxGeometry x="1650.5" y="878" width="60" height="30" as="geometry" />
        </mxCell>
        <mxCell id="X1kZhqMp7LS2dHs1aFbI-79" style="edgeStyle=orthogonalEdgeStyle;rounded=0;orthogonalLoop=1;jettySize=auto;html=1;strokeWidth=2.5;fontFamily=Verdana;fontSize=15;endArrow=open;endFill=0;startSize=8;endSize=13;sourcePerimeterSpacing=8;targetPerimeterSpacing=8;" parent="X1kZhqMp7LS2dHs1aFbI-1" source="X1kZhqMp7LS2dHs1aFbI-24" target="X1kZhqMp7LS2dHs1aFbI-6" edge="1">
          <mxGeometry relative="1" as="geometry">
            <Array as="points">
              <mxPoint x="630" y="220" />
              <mxPoint x="170" y="220" />
              <mxPoint x="170" y="641" />
            </Array>
          </mxGeometry>
        </mxCell>
        <mxCell id="X1kZhqMp7LS2dHs1aFbI-112" value="" style="shape=image;verticalLabelPosition=bottom;labelBackgroundColor=default;verticalAlign=top;aspect=fixed;imageAspect=0;image=https://static-00.iconduck.com/assets.00/terraform-icon-452x512-ildgg5fd.png;" parent="X1kZhqMp7LS2dHs1aFbI-1" vertex="1">
          <mxGeometry x="1450" y="239.99999999999997" width="74.02" height="83.84" as="geometry" />
        </mxCell>
        <mxCell id="X1kZhqMp7LS2dHs1aFbI-114" value="Terraform" style="text;html=1;strokeColor=none;fillColor=none;align=center;verticalAlign=middle;whiteSpace=wrap;rounded=0;strokeWidth=1;fontFamily=Verdana;fontStyle=0;fontSize=15;" parent="X1kZhqMp7LS2dHs1aFbI-1" vertex="1">
          <mxGeometry x="1457.01" y="330" width="60" height="30" as="geometry" />
        </mxCell>
        <mxCell id="X1kZhqMp7LS2dHs1aFbI-115" value="Users" style="text;html=1;strokeColor=none;fillColor=none;align=center;verticalAlign=middle;whiteSpace=wrap;rounded=0;strokeWidth=1;fontFamily=Verdana;fontStyle=0;fontSize=15;" parent="X1kZhqMp7LS2dHs1aFbI-1" vertex="1">
          <mxGeometry x="49" y="690" width="60" height="30" as="geometry" />
        </mxCell>
        <mxCell id="X1kZhqMp7LS2dHs1aFbI-116" value="Github repositories" style="text;html=1;strokeColor=none;fillColor=none;align=center;verticalAlign=middle;whiteSpace=wrap;rounded=0;strokeWidth=1;fontFamily=Verdana;fontStyle=0;fontSize=15;" parent="X1kZhqMp7LS2dHs1aFbI-1" vertex="1">
          <mxGeometry x="1649" y="567" width="60" height="30" as="geometry" />
        </mxCell>
      </root>
    </mxGraphModel>
  </diagram>
</mxfile>
